<svg width="29" height="29" viewBox="0 0 29 29" fill="none" xmlns="http://www.w3.org/2000/svg">
<path d="M14.5 12.75V8.66667M14.5 16.8333H14.5117M8.66667 21.5V24.2248C8.66667 24.8464 8.66667 25.1572 8.7941 25.3169C8.90493 25.4557 9.07298 25.5365 9.25063 25.5363C9.4549 25.5361 9.69762 25.3419 10.183 24.9536L12.9661 22.7271C13.5346 22.2723 13.8189 22.0449 14.1354 21.8832C14.4162 21.7397 14.7152 21.6349 15.0241 21.5715C15.3723 21.5 15.7363 21.5 16.4644 21.5H19.4C21.3602 21.5 22.3403 21.5 23.089 21.1185C23.7475 20.783 24.283 20.2475 24.6185 19.589C25 18.8403 25 17.8602 25 15.9V9.6C25 7.63982 25 6.65972 24.6185 5.91103C24.283 5.25247 23.7475 4.71703 23.089 4.38148C22.3403 4 21.3602 4 19.4 4H9.6C7.63982 4 6.65972 4 5.91103 4.38148C5.25247 4.71703 4.71703 5.25247 4.38148 5.91103C4 6.65972 4 7.63982 4 9.6V16.8333C4 17.9183 4 18.4608 4.11926 18.9059C4.44289 20.1137 5.38631 21.0571 6.59413 21.3807C7.03922 21.5 7.5817 21.5 8.66667 21.5Z" stroke="#4C4EDB" stroke-width="2" stroke-linecap="round" stroke-linejoin="round"/>
</svg>
