<svg width="16" height="16" viewBox="0 0 16 16" fill="none" xmlns="http://www.w3.org/2000/svg">
<path d="M8.00016 14.6666C4.31826 14.6666 1.3335 11.6818 1.3335 7.99998C1.3335 4.31808 4.31826 1.33331 8.00016 1.33331C11.682 1.33331 14.6668 4.31808 14.6668 7.99998C14.6668 11.6818 11.682 14.6666 8.00016 14.6666ZM8.00016 13.3333C10.9457 13.3333 13.3335 10.9455 13.3335 7.99998C13.3335 5.05446 10.9457 2.66665 8.00016 2.66665C5.05464 2.66665 2.66683 5.05446 2.66683 7.99998C2.66683 10.9455 5.05464 13.3333 8.00016 13.3333ZM7.3335 4.66665H8.66683V5.99998H7.3335V4.66665ZM7.3335 7.33331H8.66683V11.3333H7.3335V7.33331Z" fill="#C40205"/>
</svg>
