<svg width="29" height="28" viewBox="0 0 29 28" fill="none" xmlns="http://www.w3.org/2000/svg">
<path d="M8.08333 7.58333H8.095M20.9167 7.58333H20.9283M8.08333 20.4167H8.095M15.6667 15.1667H15.6783M20.9167 20.4167H20.9283M20.3333 24.5H25V19.8333M16.8333 19.25V24.5M25 16.3333H19.75M18.7 11.6667H23.1333C23.7867 11.6667 24.1134 11.6667 24.363 11.5395C24.5825 11.4277 24.761 11.2492 24.8728 11.0297C25 10.7801 25 10.4534 25 9.8V5.36667C25 4.71327 25 4.38657 24.8728 4.13701C24.761 3.91749 24.5825 3.73901 24.363 3.62716C24.1134 3.5 23.7867 3.5 23.1333 3.5H18.7C18.0466 3.5 17.7199 3.5 17.4703 3.62716C17.2508 3.73901 17.0723 3.91749 16.9605 4.13701C16.8333 4.38657 16.8333 4.71327 16.8333 5.36667V9.8C16.8333 10.4534 16.8333 10.7801 16.9605 11.0297C17.0723 11.2492 17.2508 11.4277 17.4703 11.5395C17.7199 11.6667 18.0466 11.6667 18.7 11.6667ZM5.86667 11.6667H10.3C10.9534 11.6667 11.2801 11.6667 11.5297 11.5395C11.7492 11.4277 11.9277 11.2492 12.0395 11.0297C12.1667 10.7801 12.1667 10.4534 12.1667 9.8V5.36667C12.1667 4.71327 12.1667 4.38657 12.0395 4.13701C11.9277 3.91749 11.7492 3.73901 11.5297 3.62716C11.2801 3.5 10.9534 3.5 10.3 3.5H5.86667C5.21327 3.5 4.88657 3.5 4.63701 3.62716C4.41749 3.73901 4.23901 3.91749 4.12716 4.13701C4 4.38657 4 4.71327 4 5.36667V9.8C4 10.4534 4 10.7801 4.12716 11.0297C4.23901 11.2492 4.41749 11.4277 4.63701 11.5395C4.88657 11.6667 5.21327 11.6667 5.86667 11.6667ZM5.86667 24.5H10.3C10.9534 24.5 11.2801 24.5 11.5297 24.3728C11.7492 24.261 11.9277 24.0825 12.0395 23.863C12.1667 23.6134 12.1667 23.2867 12.1667 22.6333V18.2C12.1667 17.5466 12.1667 17.2199 12.0395 16.9703C11.9277 16.7508 11.7492 16.5723 11.5297 16.4605C11.2801 16.3333 10.9534 16.3333 10.3 16.3333H5.86667C5.21327 16.3333 4.88657 16.3333 4.63701 16.4605C4.41749 16.5723 4.23901 16.7508 4.12716 16.9703C4 17.2199 4 17.5466 4 18.2V22.6333C4 23.2867 4 23.6134 4.12716 23.863C4.23901 24.0825 4.41749 24.261 4.63701 24.3728C4.88657 24.5 5.21327 24.5 5.86667 24.5Z" stroke="#4C4EDB" stroke-width="2" stroke-linecap="round" stroke-linejoin="round"/>
</svg>
